<svg width="102" height="128" viewBox="0 0 102 128" fill="none" xmlns="http://www.w3.org/2000/svg">
<path d="M64.4763 0C69.3908 0 74.2572 0.973891 78.7976 2.86607C83.338 4.75824 87.4635 7.53165 90.9386 11.0279C94.4137 14.5242 97.1703 18.6749 99.051 23.243C100.932 27.8112 101.9 32.7072 101.9 37.6517C101.9 42.5962 100.932 47.4923 99.051 52.0604C97.1703 56.6285 94.4137 60.7792 90.9386 64.2755C87.4635 67.7718 83.338 70.5452 78.7976 72.4374C74.2572 74.3296 69.3908 75.3035 64.4763 75.3035H32.2453C31.5696 75.3035 30.9005 75.1695 30.2761 74.9094C29.6518 74.6492 29.0846 74.2678 28.6068 73.7871C28.1289 73.3064 27.7499 72.7356 27.4913 72.1075C27.2327 71.4794 27.0996 70.8062 27.0996 70.1263V37.6517C27.0996 27.6659 31.0424 18.089 38.0607 11.0279C45.0789 3.96687 54.5977 0 64.523 0L64.4763 0Z" fill="#FF9100"/>
<path d="M32.3162 79.9434H50.8113C53.9252 79.9434 57.0086 80.5567 59.8854 81.7483C62.7623 82.9399 65.3762 84.6865 67.5781 86.8884C69.7799 89.0902 71.5265 91.7042 72.7181 94.581C73.9098 97.4578 74.5231 100.541 74.5231 103.655C74.5231 109.944 72.0249 115.975 67.5781 120.422C63.1313 124.869 57.1001 127.367 50.8113 127.367C44.5226 127.367 38.4914 124.869 34.0446 120.422C29.5978 115.975 27.0996 109.944 27.0996 103.655V85.1599C27.0996 83.7764 27.6492 82.4496 28.6275 81.4713C29.6058 80.493 30.9327 79.9434 32.3162 79.9434Z" fill="#FF9100"/>
<path d="M10.7779 88.08C16.7304 88.08 21.5559 83.2251 21.5559 77.2363C21.5559 71.2475 16.7304 66.3926 10.7779 66.3926C4.82545 66.3926 0 71.2475 0 77.2363C0 83.2251 4.82545 88.08 10.7779 88.08Z" fill="white"/>
</svg>
